<!--?xml version="1.0" standalone="no"?-->
              <svg id="sw-js-blob-svg" viewBox="0 0 100 100" xmlns="http://www.w3.org/2000/svg" version="1.1">
                    <defs> 
                        <linearGradient id="sw-gradient" x1="0" x2="1" y1="1" y2="0">
                            <stop id="stop1" stop-color="rgba(212, 65, 65, 1)" offset="0%"></stop>
                            <stop id="stop2" stop-color="rgba(212, 65, 65, 1)" offset="100%"></stop>
                        </linearGradient>
                    </defs>
                <path fill="url(#sw-gradient)" d="M26,-29C33.2,-25,38.1,-16.3,38.5,-7.7C38.9,0.8,34.8,9.3,30,17.1C25.2,24.9,19.8,32.2,12.5,35.3C5.2,38.4,-4,37.3,-12.5,34.3C-21,31.2,-28.8,26.2,-32.9,19C-37,11.9,-37.4,2.6,-35,-5.3C-32.5,-13.2,-27.3,-19.7,-21,-23.9C-14.7,-28,-7.3,-29.7,1,-31C9.4,-32.2,18.9,-32.9,26,-29Z" width="100%" height="100%" transform="translate(50 50)" stroke-width="0" style="transition: all 0.3s ease 0s;" stroke="url(#sw-gradient)"></path>
              </svg>