<!--?xml version="1.0" standalone="no"?-->
              <svg id="sw-js-blob-svg" viewBox="0 0 100 100" xmlns="http://www.w3.org/2000/svg" version="1.1">
                    <defs> 
                        <linearGradient id="sw-gradient" x1="0" x2="1" y1="1" y2="0">
                            <stop id="stop1" stop-color="rgba(212, 65, 65, 1)" offset="0%"></stop>
                            <stop id="stop2" stop-color="rgba(212, 65, 65, 1)" offset="100%"></stop>
                        </linearGradient>
                    </defs>
                <path fill="url(#sw-gradient)" d="M27.1,-30.1C34.5,-26.1,39.3,-17,41.5,-7C43.7,3,43.2,13.9,38.5,22.4C33.8,31,24.8,37.3,15,40.6C5.2,43.9,-5.5,44.1,-12.8,39.5C-20.1,34.9,-24,25.5,-29.5,16.7C-34.9,7.9,-41.9,-0.4,-40.5,-6.9C-39.1,-13.5,-29.3,-18.4,-21.2,-22.2C-13,-26.1,-6.5,-28.8,1.7,-30.8C9.9,-32.8,19.7,-34.1,27.1,-30.1Z" width="100%" height="100%" transform="translate(50 50)" stroke-width="0" style="transition: all 0.3s ease 0s;" stroke="url(#sw-gradient)"></path>
              </svg>